<svg width="333" height="333" viewBox="0 0 333 333" fill="none" xmlns="http://www.w3.org/2000/svg">
<rect width="333" height="333" rx="50" fill="url(#paint0_radial_64_198)"/>
<path d="M94.9306 48H173.665C201.037 48 221.002 52.5311 233.561 61.5933C246.12 70.4289 252.399 84.1355 252.399 102.713V117.326C252.399 142.02 240.806 157.652 217.621 164.223V164.902C230.501 167.621 239.518 173.171 244.67 181.554C250.145 189.936 252.882 201.151 252.882 215.197V256.997C252.882 263.793 253.204 269.344 253.848 273.648C254.492 277.726 256.102 281.804 258.678 285.882H204.579C202.647 282.031 201.359 278.406 200.715 275.008C200.071 271.609 199.748 265.492 199.748 256.657V213.158C199.748 202.284 197.172 194.694 192.02 190.39C187.19 186.085 178.656 183.933 166.419 183.933H148.064V285.882H94.9306V48ZM167.385 149.95C178.012 149.95 185.902 148.024 191.054 144.172C196.528 140.321 199.265 133.864 199.265 124.802V106.451C199.265 97.842 197.011 91.6118 192.503 87.7604C188.317 83.9089 181.554 81.9832 172.216 81.9832H148.064V149.95H167.385Z" fill="#0DD3EB"/>
<mask id="mask0_64_198" style="mask-type:alpha" maskUnits="userSpaceOnUse" x="55" y="67" width="206" height="202">
<path d="M55 67.2573H260.288V268.325H55V67.2573Z" fill="#0DD3EB"/>
</mask>
<g mask="url(#mask0_64_198)">
<path d="M70.779 31.0084H149.513C176.885 31.0084 196.85 35.5395 209.409 44.6017C221.968 53.4373 228.247 67.1439 228.247 85.7214V100.334C228.247 125.029 216.655 140.661 193.469 147.231V147.911C206.35 150.629 215.366 156.18 220.519 164.562C225.993 172.945 228.73 184.159 228.73 198.206V240.005C228.73 246.802 229.052 252.352 229.696 256.657C230.34 260.735 231.951 264.813 234.527 268.891H180.427C178.495 265.039 177.207 261.415 176.563 258.016C175.919 254.618 175.597 248.501 175.597 239.665V196.167C175.597 185.292 173.021 177.703 167.868 173.398C163.038 169.094 154.504 166.941 142.268 166.941H123.912V268.891H70.779V31.0084ZM143.234 132.958C153.86 132.958 161.75 131.032 166.902 127.181C172.377 123.329 175.114 116.873 175.114 107.81V89.4595C175.114 80.8504 172.86 74.6202 168.351 70.7688C164.165 66.9174 157.403 64.9916 148.064 64.9916H123.912V132.958H143.234Z" fill="#E513F7"/>
<path d="M94.9306 48.0001H173.665C201.037 48.0001 221.002 52.5312 233.561 61.5934C246.12 70.429 252.399 84.1356 252.399 102.713V117.326C252.399 142.02 240.806 157.653 217.621 164.223V164.902C230.501 167.621 239.518 173.172 244.67 181.554C250.145 189.937 252.882 201.151 252.882 215.197V256.997C252.882 263.793 253.204 269.344 253.848 273.649C254.492 277.727 256.102 281.805 258.678 285.883H204.579C202.647 282.031 201.359 278.406 200.715 275.008C200.071 271.61 199.748 265.493 199.748 256.657V213.158C199.748 202.284 197.172 194.694 192.02 190.39C187.19 186.085 178.656 183.933 166.419 183.933H148.064V285.883H94.9306V48.0001ZM167.385 149.95C178.012 149.95 185.902 148.024 191.054 144.173C196.528 140.321 199.265 133.864 199.265 124.802V106.451C199.265 97.8421 197.011 91.6119 192.503 87.7605C188.317 83.9091 181.554 81.9833 172.216 81.9833H148.064V149.95H167.385Z" fill="white"/>
</g>
<defs>
<radialGradient id="paint0_radial_64_198" cx="0" cy="0" r="1" gradientUnits="userSpaceOnUse" gradientTransform="translate(166.5 166.5) rotate(90.1204) scale(238.001 238.001)">
<stop offset="0.401042" stop-color="#0F0E37"/>
<stop offset="1" stop-color="#03030D"/>
</radialGradient>
</defs>
</svg>
