<?xml version="1.0" standalone="no"?>
<!DOCTYPE svg PUBLIC "-//W3C//DTD SVG 20010904//EN"
 "http://www.w3.org/TR/2001/REC-SVG-20010904/DTD/svg10.dtd">
<svg version="1.0" xmlns="http://www.w3.org/2000/svg"
 width="333.000000pt" height="333.000000pt" viewBox="0 0 333.000000 333.000000"
 preserveAspectRatio="xMidYMid meet">
<metadata>
Created by potrace 1.14, written by Peter Selinger 2001-2017
</metadata>
<g transform="translate(0.000000,333.000000) scale(0.100000,-0.100000)"
fill="#000000" stroke="none">
<path d="M420 3323 c-14 -2 -52 -13 -85 -25 -168 -58 -295 -207 -325 -378 -8
-46 -10 -426 -8 -1295 l3 -1230 24 -60 c70 -175 211 -296 381 -325 46 -8 426
-10 1295 -8 l1230 3 60 24 c175 70 296 211 325 381 8 46 10 426 8 1295 l-3
1230 -24 60 c-69 172 -209 294 -375 324 -57 10 -2443 14 -2506 4z m1510 -483
c326 -35 505 -147 570 -359 40 -127 37 -402 -6 -523 -37 -107 -126 -195 -249
-247 l-64 -27 67 -22 c125 -41 205 -124 253 -262 22 -62 23 -84 29 -445 5
-366 6 -382 28 -429 12 -27 22 -50 22 -52 0 -2 -119 -4 -265 -4 l-264 0 -15
29 c-32 61 -38 123 -45 471 -6 340 -7 357 -28 397 -48 89 -114 113 -330 120
l-153 5 0 -511 0 -511 -265 0 -265 0 0 1190 0 1190 443 0 c243 0 485 -5 537
-10z"/>
<path d="M1480 2170 l0 -340 108 0 c219 1 323 34 372 121 24 42 25 50 25 224
0 173 -1 182 -25 225 -49 87 -122 110 -348 110 l-132 0 0 -340z"/>
</g>
</svg>
